<mxfile host="app.diagrams.net" agent="Mozilla/5.0 (Windows NT 10.0; Win64; x64; rv:132.0) Gecko/20100101 Firefox/132.0" version="24.7.17">
  <diagram name="Page-1" id="ZufIBTcxjuJSeLiOCQ5U">
    <mxGraphModel dx="1763" dy="485" grid="1" gridSize="10" guides="1" tooltips="1" connect="1" arrows="1" fold="1" page="1" pageScale="1" pageWidth="850" pageHeight="1100" math="0" shadow="0">
      <root>
        <mxCell id="0" />
        <mxCell id="1" parent="0" />
        <mxCell id="un52fQZ92QlS_SPzwzZD-1" value="&lt;div&gt;Camionero&lt;/div&gt;" style="rounded=0;whiteSpace=wrap;html=1;fillColor=#dae8fc;strokeColor=#6c8ebf;" vertex="1" parent="1">
          <mxGeometry x="150" y="260" width="120" height="60" as="geometry" />
        </mxCell>
        <mxCell id="un52fQZ92QlS_SPzwzZD-2" value="DNI" style="ellipse;whiteSpace=wrap;html=1;fillColor=#d5e8d4;strokeColor=#82b366;fontStyle=7" vertex="1" parent="1">
          <mxGeometry x="150" y="360" width="120" height="80" as="geometry" />
        </mxCell>
        <mxCell id="un52fQZ92QlS_SPzwzZD-3" value="&lt;div&gt;Nombre&lt;/div&gt;" style="ellipse;whiteSpace=wrap;html=1;fillColor=#d5e8d4;strokeColor=#82b366;" vertex="1" parent="1">
          <mxGeometry x="280" y="360" width="120" height="80" as="geometry" />
        </mxCell>
        <mxCell id="un52fQZ92QlS_SPzwzZD-4" value="Teléfono" style="ellipse;whiteSpace=wrap;html=1;fillColor=#d5e8d4;strokeColor=#82b366;" vertex="1" parent="1">
          <mxGeometry x="20" y="360" width="120" height="80" as="geometry" />
        </mxCell>
        <mxCell id="un52fQZ92QlS_SPzwzZD-5" value="Dirección" style="ellipse;whiteSpace=wrap;html=1;fillColor=#d5e8d4;strokeColor=#82b366;" vertex="1" parent="1">
          <mxGeometry x="280" y="130" width="120" height="80" as="geometry" />
        </mxCell>
        <mxCell id="un52fQZ92QlS_SPzwzZD-6" value="Salario" style="ellipse;whiteSpace=wrap;html=1;fillColor=#d5e8d4;strokeColor=#82b366;" vertex="1" parent="1">
          <mxGeometry x="20" y="130" width="120" height="80" as="geometry" />
        </mxCell>
        <mxCell id="un52fQZ92QlS_SPzwzZD-7" value="Población" style="ellipse;whiteSpace=wrap;html=1;fillColor=#d5e8d4;strokeColor=#82b366;" vertex="1" parent="1">
          <mxGeometry x="150" y="130" width="120" height="80" as="geometry" />
        </mxCell>
        <mxCell id="un52fQZ92QlS_SPzwzZD-8" value="" style="endArrow=classic;html=1;rounded=0;exitX=0.5;exitY=0;exitDx=0;exitDy=0;entryX=0.45;entryY=0.988;entryDx=0;entryDy=0;entryPerimeter=0;" edge="1" parent="1" source="un52fQZ92QlS_SPzwzZD-1" target="un52fQZ92QlS_SPzwzZD-6">
          <mxGeometry width="50" height="50" relative="1" as="geometry">
            <mxPoint x="400" y="320" as="sourcePoint" />
            <mxPoint x="450" y="270" as="targetPoint" />
          </mxGeometry>
        </mxCell>
        <mxCell id="un52fQZ92QlS_SPzwzZD-9" value="" style="endArrow=classic;html=1;rounded=0;exitX=0.5;exitY=0;exitDx=0;exitDy=0;entryX=0.5;entryY=1;entryDx=0;entryDy=0;" edge="1" parent="1" source="un52fQZ92QlS_SPzwzZD-1" target="un52fQZ92QlS_SPzwzZD-7">
          <mxGeometry width="50" height="50" relative="1" as="geometry">
            <mxPoint x="400" y="320" as="sourcePoint" />
            <mxPoint x="450" y="270" as="targetPoint" />
          </mxGeometry>
        </mxCell>
        <mxCell id="un52fQZ92QlS_SPzwzZD-10" value="" style="endArrow=classic;html=1;rounded=0;exitX=0.5;exitY=0;exitDx=0;exitDy=0;entryX=0.5;entryY=1;entryDx=0;entryDy=0;" edge="1" parent="1" source="un52fQZ92QlS_SPzwzZD-1" target="un52fQZ92QlS_SPzwzZD-5">
          <mxGeometry width="50" height="50" relative="1" as="geometry">
            <mxPoint x="400" y="320" as="sourcePoint" />
            <mxPoint x="450" y="270" as="targetPoint" />
          </mxGeometry>
        </mxCell>
        <mxCell id="un52fQZ92QlS_SPzwzZD-11" value="" style="endArrow=classic;html=1;rounded=0;exitX=0.5;exitY=1;exitDx=0;exitDy=0;entryX=0.5;entryY=0;entryDx=0;entryDy=0;" edge="1" parent="1" source="un52fQZ92QlS_SPzwzZD-1" target="un52fQZ92QlS_SPzwzZD-4">
          <mxGeometry width="50" height="50" relative="1" as="geometry">
            <mxPoint x="400" y="320" as="sourcePoint" />
            <mxPoint x="450" y="270" as="targetPoint" />
          </mxGeometry>
        </mxCell>
        <mxCell id="un52fQZ92QlS_SPzwzZD-12" value="" style="endArrow=classic;html=1;rounded=0;exitX=0.5;exitY=1;exitDx=0;exitDy=0;entryX=0.5;entryY=0;entryDx=0;entryDy=0;" edge="1" parent="1" source="un52fQZ92QlS_SPzwzZD-1" target="un52fQZ92QlS_SPzwzZD-2">
          <mxGeometry width="50" height="50" relative="1" as="geometry">
            <mxPoint x="400" y="320" as="sourcePoint" />
            <mxPoint x="450" y="270" as="targetPoint" />
          </mxGeometry>
        </mxCell>
        <mxCell id="un52fQZ92QlS_SPzwzZD-13" value="" style="endArrow=classic;html=1;rounded=0;exitX=0.5;exitY=1;exitDx=0;exitDy=0;entryX=0.5;entryY=0;entryDx=0;entryDy=0;" edge="1" parent="1" source="un52fQZ92QlS_SPzwzZD-1" target="un52fQZ92QlS_SPzwzZD-3">
          <mxGeometry width="50" height="50" relative="1" as="geometry">
            <mxPoint x="400" y="320" as="sourcePoint" />
            <mxPoint x="450" y="270" as="targetPoint" />
          </mxGeometry>
        </mxCell>
        <mxCell id="un52fQZ92QlS_SPzwzZD-25" value="Paquete" style="rounded=0;whiteSpace=wrap;html=1;fillColor=#dae8fc;strokeColor=#6c8ebf;" vertex="1" parent="1">
          <mxGeometry x="-210" y="260" width="120" height="60" as="geometry" />
        </mxCell>
        <mxCell id="un52fQZ92QlS_SPzwzZD-26" value="Dirección del destinatario" style="ellipse;whiteSpace=wrap;html=1;fillColor=#d5e8d4;strokeColor=#82b366;" vertex="1" parent="1">
          <mxGeometry x="-140" y="360" width="120" height="80" as="geometry" />
        </mxCell>
        <mxCell id="un52fQZ92QlS_SPzwzZD-28" value="Destinatario" style="ellipse;whiteSpace=wrap;html=1;fillColor=#d5e8d4;strokeColor=#82b366;" vertex="1" parent="1">
          <mxGeometry x="-270" y="360" width="120" height="80" as="geometry" />
        </mxCell>
        <mxCell id="un52fQZ92QlS_SPzwzZD-30" value="Código" style="ellipse;whiteSpace=wrap;html=1;fillColor=#d5e8d4;strokeColor=#82b366;fontStyle=7" vertex="1" parent="1">
          <mxGeometry x="-270" y="130" width="120" height="80" as="geometry" />
        </mxCell>
        <mxCell id="un52fQZ92QlS_SPzwzZD-31" value="Descripción" style="ellipse;whiteSpace=wrap;html=1;fillColor=#d5e8d4;strokeColor=#82b366;" vertex="1" parent="1">
          <mxGeometry x="-140" y="130" width="120" height="80" as="geometry" />
        </mxCell>
        <mxCell id="un52fQZ92QlS_SPzwzZD-32" value="" style="endArrow=classic;html=1;rounded=0;exitX=0.5;exitY=0;exitDx=0;exitDy=0;entryX=0.45;entryY=0.988;entryDx=0;entryDy=0;entryPerimeter=0;" edge="1" parent="1" source="un52fQZ92QlS_SPzwzZD-25" target="un52fQZ92QlS_SPzwzZD-30">
          <mxGeometry width="50" height="50" relative="1" as="geometry">
            <mxPoint x="110" y="320" as="sourcePoint" />
            <mxPoint x="160" y="270" as="targetPoint" />
          </mxGeometry>
        </mxCell>
        <mxCell id="un52fQZ92QlS_SPzwzZD-33" value="" style="endArrow=classic;html=1;rounded=0;exitX=0.5;exitY=0;exitDx=0;exitDy=0;entryX=0.5;entryY=1;entryDx=0;entryDy=0;" edge="1" parent="1" source="un52fQZ92QlS_SPzwzZD-25" target="un52fQZ92QlS_SPzwzZD-31">
          <mxGeometry width="50" height="50" relative="1" as="geometry">
            <mxPoint x="110" y="320" as="sourcePoint" />
            <mxPoint x="160" y="270" as="targetPoint" />
          </mxGeometry>
        </mxCell>
        <mxCell id="un52fQZ92QlS_SPzwzZD-35" value="" style="endArrow=classic;html=1;rounded=0;exitX=0.5;exitY=1;exitDx=0;exitDy=0;entryX=0.5;entryY=0;entryDx=0;entryDy=0;" edge="1" parent="1" source="un52fQZ92QlS_SPzwzZD-25" target="un52fQZ92QlS_SPzwzZD-28">
          <mxGeometry width="50" height="50" relative="1" as="geometry">
            <mxPoint x="110" y="320" as="sourcePoint" />
            <mxPoint x="160" y="270" as="targetPoint" />
          </mxGeometry>
        </mxCell>
        <mxCell id="un52fQZ92QlS_SPzwzZD-36" value="" style="endArrow=classic;html=1;rounded=0;exitX=0.5;exitY=1;exitDx=0;exitDy=0;entryX=0.5;entryY=0;entryDx=0;entryDy=0;" edge="1" parent="1" source="un52fQZ92QlS_SPzwzZD-25" target="un52fQZ92QlS_SPzwzZD-26">
          <mxGeometry width="50" height="50" relative="1" as="geometry">
            <mxPoint x="110" y="320" as="sourcePoint" />
            <mxPoint x="160" y="270" as="targetPoint" />
          </mxGeometry>
        </mxCell>
        <mxCell id="un52fQZ92QlS_SPzwzZD-58" value="Provincia" style="rounded=0;whiteSpace=wrap;html=1;fillColor=#dae8fc;strokeColor=#6c8ebf;" vertex="1" parent="1">
          <mxGeometry x="-470" y="260" width="120" height="60" as="geometry" />
        </mxCell>
        <mxCell id="un52fQZ92QlS_SPzwzZD-60" value="Nombre" style="ellipse;whiteSpace=wrap;html=1;fillColor=#d5e8d4;strokeColor=#82b366;" vertex="1" parent="1">
          <mxGeometry x="-470" y="360" width="120" height="80" as="geometry" />
        </mxCell>
        <mxCell id="un52fQZ92QlS_SPzwzZD-61" value="Código" style="ellipse;whiteSpace=wrap;html=1;fillColor=#d5e8d4;strokeColor=#82b366;fontStyle=7" vertex="1" parent="1">
          <mxGeometry x="-470" y="130" width="120" height="80" as="geometry" />
        </mxCell>
        <mxCell id="un52fQZ92QlS_SPzwzZD-63" value="" style="endArrow=classic;html=1;rounded=0;exitX=0.5;exitY=0;exitDx=0;exitDy=0;entryX=0.5;entryY=1;entryDx=0;entryDy=0;" edge="1" parent="1" source="un52fQZ92QlS_SPzwzZD-58" target="un52fQZ92QlS_SPzwzZD-61">
          <mxGeometry width="50" height="50" relative="1" as="geometry">
            <mxPoint x="-150" y="320" as="sourcePoint" />
            <mxPoint x="-100" y="270" as="targetPoint" />
          </mxGeometry>
        </mxCell>
        <mxCell id="un52fQZ92QlS_SPzwzZD-65" value="" style="endArrow=classic;html=1;rounded=0;exitX=0.5;exitY=1;exitDx=0;exitDy=0;entryX=0.5;entryY=0;entryDx=0;entryDy=0;" edge="1" parent="1" source="un52fQZ92QlS_SPzwzZD-58" target="un52fQZ92QlS_SPzwzZD-60">
          <mxGeometry width="50" height="50" relative="1" as="geometry">
            <mxPoint x="-150" y="320" as="sourcePoint" />
            <mxPoint x="-100" y="270" as="targetPoint" />
          </mxGeometry>
        </mxCell>
        <mxCell id="un52fQZ92QlS_SPzwzZD-67" value="&lt;div&gt;Camión&lt;/div&gt;" style="rounded=0;whiteSpace=wrap;html=1;fillColor=#dae8fc;strokeColor=#6c8ebf;" vertex="1" parent="1">
          <mxGeometry x="640" y="260" width="120" height="60" as="geometry" />
        </mxCell>
        <mxCell id="un52fQZ92QlS_SPzwzZD-68" value="&lt;div&gt;Potencia&lt;/div&gt;" style="ellipse;whiteSpace=wrap;html=1;fillColor=#d5e8d4;strokeColor=#82b366;" vertex="1" parent="1">
          <mxGeometry x="710" y="360" width="120" height="80" as="geometry" />
        </mxCell>
        <mxCell id="un52fQZ92QlS_SPzwzZD-70" value="Tipo" style="ellipse;whiteSpace=wrap;html=1;fillColor=#d5e8d4;strokeColor=#82b366;" vertex="1" parent="1">
          <mxGeometry x="570" y="360" width="120" height="80" as="geometry" />
        </mxCell>
        <mxCell id="un52fQZ92QlS_SPzwzZD-72" value="Matrícula" style="ellipse;whiteSpace=wrap;html=1;fillColor=#d5e8d4;strokeColor=#82b366;fontStyle=7" vertex="1" parent="1">
          <mxGeometry x="570" y="130" width="120" height="80" as="geometry" />
        </mxCell>
        <mxCell id="un52fQZ92QlS_SPzwzZD-73" value="&lt;div&gt;Modelo&lt;/div&gt;" style="ellipse;whiteSpace=wrap;html=1;fillColor=#d5e8d4;strokeColor=#82b366;" vertex="1" parent="1">
          <mxGeometry x="710" y="130" width="120" height="80" as="geometry" />
        </mxCell>
        <mxCell id="un52fQZ92QlS_SPzwzZD-74" value="" style="endArrow=classic;html=1;rounded=0;exitX=0.5;exitY=0;exitDx=0;exitDy=0;entryX=0.5;entryY=1;entryDx=0;entryDy=0;" edge="1" parent="1" source="un52fQZ92QlS_SPzwzZD-67" target="un52fQZ92QlS_SPzwzZD-72">
          <mxGeometry width="50" height="50" relative="1" as="geometry">
            <mxPoint x="890" y="320" as="sourcePoint" />
            <mxPoint x="563.9999999999998" y="209.03999999999996" as="targetPoint" />
          </mxGeometry>
        </mxCell>
        <mxCell id="un52fQZ92QlS_SPzwzZD-75" value="" style="endArrow=classic;html=1;rounded=0;exitX=0.5;exitY=0;exitDx=0;exitDy=0;entryX=0.5;entryY=1;entryDx=0;entryDy=0;" edge="1" parent="1" source="un52fQZ92QlS_SPzwzZD-67" target="un52fQZ92QlS_SPzwzZD-73">
          <mxGeometry width="50" height="50" relative="1" as="geometry">
            <mxPoint x="890" y="320" as="sourcePoint" />
            <mxPoint x="940" y="270" as="targetPoint" />
          </mxGeometry>
        </mxCell>
        <mxCell id="un52fQZ92QlS_SPzwzZD-77" value="" style="endArrow=classic;html=1;rounded=0;exitX=0.5;exitY=1;exitDx=0;exitDy=0;entryX=0.5;entryY=0;entryDx=0;entryDy=0;" edge="1" parent="1" source="un52fQZ92QlS_SPzwzZD-67" target="un52fQZ92QlS_SPzwzZD-70">
          <mxGeometry width="50" height="50" relative="1" as="geometry">
            <mxPoint x="890" y="320" as="sourcePoint" />
            <mxPoint x="570" y="360" as="targetPoint" />
          </mxGeometry>
        </mxCell>
        <mxCell id="un52fQZ92QlS_SPzwzZD-78" value="" style="endArrow=classic;html=1;rounded=0;exitX=0.5;exitY=1;exitDx=0;exitDy=0;entryX=0.5;entryY=0;entryDx=0;entryDy=0;" edge="1" parent="1" source="un52fQZ92QlS_SPzwzZD-67" target="un52fQZ92QlS_SPzwzZD-68">
          <mxGeometry width="50" height="50" relative="1" as="geometry">
            <mxPoint x="890" y="320" as="sourcePoint" />
            <mxPoint x="940" y="270" as="targetPoint" />
          </mxGeometry>
        </mxCell>
        <mxCell id="un52fQZ92QlS_SPzwzZD-81" value="" style="endArrow=classic;html=1;rounded=0;exitX=1;exitY=0.5;exitDx=0;exitDy=0;entryX=0;entryY=0.5;entryDx=0;entryDy=0;" edge="1" parent="1" source="un52fQZ92QlS_SPzwzZD-1" target="un52fQZ92QlS_SPzwzZD-135">
          <mxGeometry width="50" height="50" relative="1" as="geometry">
            <mxPoint x="380" y="370" as="sourcePoint" />
            <mxPoint x="350" y="290" as="targetPoint" />
          </mxGeometry>
        </mxCell>
        <mxCell id="un52fQZ92QlS_SPzwzZD-82" value="" style="endArrow=classic;html=1;rounded=0;entryX=0;entryY=0.5;entryDx=0;entryDy=0;exitX=1;exitY=0.5;exitDx=0;exitDy=0;" edge="1" parent="1" source="un52fQZ92QlS_SPzwzZD-135" target="un52fQZ92QlS_SPzwzZD-67">
          <mxGeometry width="50" height="50" relative="1" as="geometry">
            <mxPoint x="700" y="295" as="sourcePoint" />
            <mxPoint x="650" y="325" as="targetPoint" />
          </mxGeometry>
        </mxCell>
        <mxCell id="un52fQZ92QlS_SPzwzZD-85" value="Distribuye" style="rhombus;whiteSpace=wrap;html=1;fillColor=#f5f5f5;fontColor=#333333;strokeColor=#666666;" vertex="1" parent="1">
          <mxGeometry x="-10" y="250" width="80" height="80" as="geometry" />
        </mxCell>
        <mxCell id="un52fQZ92QlS_SPzwzZD-86" value="" style="endArrow=classic;html=1;rounded=0;exitX=0;exitY=0.5;exitDx=0;exitDy=0;entryX=1;entryY=0.5;entryDx=0;entryDy=0;" edge="1" parent="1" source="un52fQZ92QlS_SPzwzZD-1" target="un52fQZ92QlS_SPzwzZD-85">
          <mxGeometry width="50" height="50" relative="1" as="geometry">
            <mxPoint x="-140" y="350" as="sourcePoint" />
            <mxPoint x="-90" y="300" as="targetPoint" />
          </mxGeometry>
        </mxCell>
        <mxCell id="un52fQZ92QlS_SPzwzZD-87" value="" style="endArrow=classic;html=1;rounded=0;entryX=1;entryY=0.5;entryDx=0;entryDy=0;exitX=0;exitY=0.5;exitDx=0;exitDy=0;" edge="1" parent="1" source="un52fQZ92QlS_SPzwzZD-85" target="un52fQZ92QlS_SPzwzZD-25">
          <mxGeometry width="50" height="50" relative="1" as="geometry">
            <mxPoint x="-140" y="350" as="sourcePoint" />
            <mxPoint x="-90" y="300" as="targetPoint" />
          </mxGeometry>
        </mxCell>
        <mxCell id="un52fQZ92QlS_SPzwzZD-96" value="Llega" style="rhombus;whiteSpace=wrap;html=1;fillColor=#f5f5f5;fontColor=#333333;strokeColor=#666666;" vertex="1" parent="1">
          <mxGeometry x="-320" y="250" width="80" height="80" as="geometry" />
        </mxCell>
        <mxCell id="un52fQZ92QlS_SPzwzZD-97" value="" style="endArrow=classic;html=1;rounded=0;entryX=1;entryY=0.5;entryDx=0;entryDy=0;exitX=0;exitY=0.5;exitDx=0;exitDy=0;" edge="1" parent="1" source="un52fQZ92QlS_SPzwzZD-25" target="un52fQZ92QlS_SPzwzZD-96">
          <mxGeometry width="50" height="50" relative="1" as="geometry">
            <mxPoint x="-290" y="380" as="sourcePoint" />
            <mxPoint x="-240" y="330" as="targetPoint" />
          </mxGeometry>
        </mxCell>
        <mxCell id="un52fQZ92QlS_SPzwzZD-99" value="" style="endArrow=classic;html=1;rounded=0;exitX=0;exitY=0.5;exitDx=0;exitDy=0;entryX=1;entryY=0.5;entryDx=0;entryDy=0;" edge="1" parent="1" source="un52fQZ92QlS_SPzwzZD-96" target="un52fQZ92QlS_SPzwzZD-58">
          <mxGeometry width="50" height="50" relative="1" as="geometry">
            <mxPoint x="-290" y="380" as="sourcePoint" />
            <mxPoint x="-240" y="330" as="targetPoint" />
          </mxGeometry>
        </mxCell>
        <mxCell id="un52fQZ92QlS_SPzwzZD-108" value="1:N" style="text;html=1;align=center;verticalAlign=middle;whiteSpace=wrap;rounded=0;" vertex="1" parent="1">
          <mxGeometry y="330" width="60" height="30" as="geometry" />
        </mxCell>
        <mxCell id="un52fQZ92QlS_SPzwzZD-109" value="N:M" style="text;html=1;align=center;verticalAlign=middle;whiteSpace=wrap;rounded=0;" vertex="1" parent="1">
          <mxGeometry x="410" y="330" width="60" height="30" as="geometry" />
        </mxCell>
        <mxCell id="un52fQZ92QlS_SPzwzZD-134" value="1:N" style="text;html=1;align=center;verticalAlign=middle;whiteSpace=wrap;rounded=0;" vertex="1" parent="1">
          <mxGeometry x="-350" y="330" width="60" height="30" as="geometry" />
        </mxCell>
        <mxCell id="un52fQZ92QlS_SPzwzZD-135" value="&lt;div&gt;CamioneroCamión&lt;/div&gt;" style="rounded=0;whiteSpace=wrap;html=1;fillColor=#dae8fc;strokeColor=#6c8ebf;" vertex="1" parent="1">
          <mxGeometry x="425" y="260" width="120" height="60" as="geometry" />
        </mxCell>
        <mxCell id="un52fQZ92QlS_SPzwzZD-136" value="CamioneroID" style="ellipse;whiteSpace=wrap;html=1;fillColor=#d5e8d4;strokeColor=#82b366;fontStyle=7" vertex="1" parent="1">
          <mxGeometry x="425" y="130" width="120" height="80" as="geometry" />
        </mxCell>
        <mxCell id="un52fQZ92QlS_SPzwzZD-137" value="CamionID" style="ellipse;whiteSpace=wrap;html=1;fillColor=#d5e8d4;strokeColor=#82b366;fontStyle=7" vertex="1" parent="1">
          <mxGeometry x="425" y="360" width="120" height="80" as="geometry" />
        </mxCell>
        <mxCell id="un52fQZ92QlS_SPzwzZD-139" value="" style="endArrow=classic;html=1;rounded=0;entryX=0.5;entryY=1;entryDx=0;entryDy=0;exitX=0.5;exitY=0;exitDx=0;exitDy=0;" edge="1" parent="1" source="un52fQZ92QlS_SPzwzZD-135" target="un52fQZ92QlS_SPzwzZD-136">
          <mxGeometry width="50" height="50" relative="1" as="geometry">
            <mxPoint x="445" y="350" as="sourcePoint" />
            <mxPoint x="495" y="300" as="targetPoint" />
          </mxGeometry>
        </mxCell>
        <mxCell id="un52fQZ92QlS_SPzwzZD-140" value="" style="endArrow=classic;html=1;rounded=0;entryX=0.5;entryY=0;entryDx=0;entryDy=0;exitX=0.5;exitY=1;exitDx=0;exitDy=0;" edge="1" parent="1" source="un52fQZ92QlS_SPzwzZD-135" target="un52fQZ92QlS_SPzwzZD-137">
          <mxGeometry width="50" height="50" relative="1" as="geometry">
            <mxPoint x="445" y="350" as="sourcePoint" />
            <mxPoint x="495" y="300" as="targetPoint" />
          </mxGeometry>
        </mxCell>
      </root>
    </mxGraphModel>
  </diagram>
</mxfile>
